HIERARCHY
ROOT Hips
{
	OFFSET 56.877701 -32.693596 43.373703
	CHANNELS 6 Xposition Yposition Zposition Zrotation Xrotation Yrotation
	JOINT Chest
	{
		OFFSET -0.779999 1.005800 5.403099
		CHANNELS 6 Xposition Yposition Zposition Zrotation Xrotation Yrotation
		JOINT Chest2
		{
			OFFSET 0.000000 0.000000 4.236801
			CHANNELS 6 Xposition Yposition Zposition Zrotation Xrotation Yrotation
			JOINT Neck
			{
				OFFSET 0.000000 0.000000 9.874401
				CHANNELS 6 Xposition Yposition Zposition Zrotation Xrotation Yrotation
				JOINT Head
				{
					OFFSET 0.000000 0.000002 2.173893
					CHANNELS 6 Xposition Yposition Zposition Zrotation Xrotation Yrotation
					End Site
					{
						OFFSET 0.000000 0.000000 6.508102
					}
				}
			}
			JOINT LeftCollar
			{
				OFFSET 2.681599 -0.377600 5.432499
				CHANNELS 6 Xposition Yposition Zposition Zrotation Xrotation Yrotation
				JOINT LeftShoulder
				{
					OFFSET 5.161499 0.000000 0.000000
					CHANNELS 6 Xposition Yposition Zposition Zrotation Xrotation Yrotation
					JOINT LeftElbow
					{
						OFFSET 0.000000 0.000000 -10.869099
						CHANNELS 6 Xposition Yposition Zposition Zrotation Xrotation Yrotation
						JOINT LeftWrist
						{
							OFFSET 0.000000 0.000000 -13.344799
							CHANNELS 6 Xposition Yposition Zposition Zrotation Xrotation Yrotation
							End Site
							{
								OFFSET 0.000000 0.000000 -2.173901
							}
						}
					}
				}
			}
			JOINT RightCollar
			{
				OFFSET -2.381901 -1.419600 6.136600
				CHANNELS 6 Xposition Yposition Zposition Zrotation Xrotation Yrotation
				JOINT RightShoulder
				{
					OFFSET -4.550499 0.000000 0.000000
					CHANNELS 6 Xposition Yposition Zposition Zrotation Xrotation Yrotation
					JOINT RightElbow
					{
						OFFSET 0.000000 0.000000 -11.106499
						CHANNELS 6 Xposition Yposition Zposition Zrotation Xrotation Yrotation
						JOINT RightWrist
						{
							OFFSET 0.000000 0.000000 -12.874298
							CHANNELS 6 Xposition Yposition Zposition Zrotation Xrotation Yrotation
							End Site
							{
								OFFSET 0.000000 0.000000 -2.173901
							}
						}
					}
				}
			}
		}
	}
	JOINT LeftHip
	{
		OFFSET 2.431900 0.469601 -2.489399
		CHANNELS 6 Xposition Yposition Zposition Zrotation Xrotation Yrotation
		JOINT LeftKnee
		{
			OFFSET 0.000000 -0.000004 -18.200201
			CHANNELS 6 Xposition Yposition Zposition Zrotation Xrotation Yrotation
			JOINT LeftAnkle
			{
				OFFSET 0.000000 0.000000 -16.279900
				CHANNELS 6 Xposition Yposition Zposition Zrotation Xrotation Yrotation
				End Site
				{
					OFFSET 0.000000 -8.394100 0.000000
				}
			}
		}
	}
	JOINT RightHip
	{
		OFFSET -1.987999 -0.073502 -2.713001
		CHANNELS 6 Xposition Yposition Zposition Zrotation Xrotation Yrotation
		JOINT RightKnee
		{
			OFFSET 0.000000 -0.000004 -19.547802
			CHANNELS 6 Xposition Yposition Zposition Zrotation Xrotation Yrotation
			JOINT RightAnkle
			{
				OFFSET 0.000000 0.000000 -14.881199
				CHANNELS 6 Xposition Yposition Zposition Zrotation Xrotation Yrotation
				End Site
				{
					OFFSET 0.000000 -7.922699 0.000000
				}
			}
		}
	}
}
MOTION
Frames: 4
Frame Time: 0.041667
93.388901 -38.594494 40.467400 4671.494878 18.421669 -6.440339 -0.779994 1.005804 5.403097 11.572705 -18.926900 7.752089 -0.000007 0.000010 4.236806 -12.869490 -1.696162 -1.466210 0.000015 0.000007 9.874404 56.850755 5.558210 -3.365850 0.000000 0.000001 2.173887 3.080871 0.850470 6.472041 2.681597 -0.377595 5.432497 18.844763 -16.855426 -19.513244 5.161489 0.000008 0.000000 68.898488 -137.598819 6.565725 0.000007 0.000008 -10.869104 41.944171 -12.199438 22.044140 0.000005 -0.000001 -13.344793 25.055637 -21.689056 17.700145 -2.381894 -1.419601 6.136603 -0.887619 -11.665208 41.791199 -4.550499 -0.000006 0.000014 -1172.499670 -494.783930 -371.508032 0.000004 -0.000010 -11.106507 690.358037 -22.310186 708.478748 0.000002 -0.000006 -12.874290 -409.579998 5.455986 -50.720944 2.431907 0.469608 -2.489396 -336.967191 -35.767214 18.164666 0.000001 -0.000003 -18.200199 311.760050 49.536691 39.381419 -0.000021 0.000001 -16.279903 24.353719 14.703183 -8.530894 -1.987993 -0.073498 -2.713008 -113.190960 -35.563825 -67.830561 -0.000001 0.000005 -19.547798 -2171.566084 134.691576 374.517987 -0.000001 0.000005 -14.881200 2173.726609 28.505670 -339.341584
93.366096 -38.612495 40.453201 4671.643066 18.459128 -6.460167 -0.780006 1.005800 5.403094 11.431757 -18.987159 7.744134 -0.000006 -0.000001 4.236805 -12.874509 -1.716141 -1.474013 0.000009 0.000004 9.874399 56.814156 5.449985 -3.365459 0.000001 0.000012 2.173892 3.080750 0.942014 6.507076 2.681604 -0.377605 5.432500 18.842385 -16.821506 -19.367814 5.161488 0.000004 0.000001 68.724653 -137.523837 6.554478 0.000008 -0.000002 -10.869102 42.201615 -12.396724 22.459204 -0.000004 -0.000005 -13.344795 24.839074 -21.711732 17.674721 -2.381900 -1.419600 6.136586 -0.777396 -11.345628 41.668764 -4.550510 0.000002 0.000006 -1171.892056 -494.608094 -371.034208 0.000004 -0.000010 -11.106493 689.977568 -22.737177 708.108770 0.000002 -0.000008 -12.874290 -409.132921 5.444793 -49.397663 2.431901 0.469610 -2.489404 -337.089233 -35.871009 18.192195 -0.000000 -0.000007 -18.200197 310.979660 49.333630 39.887687 -0.000014 0.000002 -16.279898 24.909941 14.616171 -8.362411 -1.987995 -0.073503 -2.713004 -113.358006 -35.553201 -67.999977 0.000000 -0.000007 -19.547802 -2171.596246 134.709526 374.611970 -0.000002 -0.000002 -14.881195 2173.568805 28.452919 -339.529633
93.341599 -38.632996 40.439003 4671.803493 18.463965 -6.485324 -0.780007 1.005796 5.403098 11.271530 -19.008949 7.737290 -0.000001 0.000002 4.236800 -12.880004 -1.741706 -1.483827 0.000011 0.000006 9.874394 56.786821 5.336440 -3.382592 -0.000010 -0.000006 2.173888 3.075005 1.034416 6.547219 2.681607 -0.377590 5.432493 18.832476 -16.794617 -19.216362 5.161503 -0.000004 -0.000002 68.510137 -137.435523 6.523895 0.000002 0.000004 -10.869109 42.390387 -12.631984 22.941419 -0.000002 0.000016 -13.344809 24.679574 -21.742145 17.646277 -2.381906 -1.419592 6.136597 -0.649323 -10.987294 41.515423 -4.550512 -0.000006 0.000013 -1171.427713 -494.401331 -370.664148 0.000001 -0.000015 -11.106500 689.195539 -23.317084 707.481431 -0.000008 -0.000017 -12.874303 -408.395069 5.288958 -47.477085 2.431891 0.469604 -2.489396 -337.228351 -35.963364 18.205844 0.000008 -0.000003 -18.200199 310.189353 49.153050 40.415148 0.000007 0.000001 -16.279896 25.455878 14.523764 -8.161254 -1.988001 -0.073503 -2.713001 -113.350862 -35.769366 -68.029258 -0.000007 -0.000013 -19.547798 -2171.770443 134.660239 374.628035 0.000003 0.000000 -14.881197 2173.076812 28.434218 -338.608076
93.316399 -38.655594 40.425304 4671.952118 18.426156 -6.511701 -0.779987 1.005807 5.403099 11.111809 -18.974419 7.738479 0.000002 0.000001 4.236805 -12.883995 -1.773929 -1.495621 0.000012 0.000007 9.874399 56.771091 5.216561 -3.423862 -0.000001 0.000007 2.173900 3.060252 1.122607 6.595627 2.681601 -0.377598 5.432496 18.808020 -16.768266 -19.070093 5.161505 0.000011 -0.000008 68.259872 -137.333043 6.465652 0.000008 0.000000 -10.869109 42.515882 -12.907830 23.500417 -0.000014 -0.000002 -13.344812 24.586092 -21.777027 17.615089 -2.381900 -1.419593 6.136591 -0.517165 -10.620513 41.321179 -4.550503 -0.000002 0.000009 -1171.161172 -494.171672 -370.460663 0.000005 -0.000017 -11.106495 688.686936 -24.197347 706.878735 -0.000006 -0.000011 -12.874292 -408.037113 4.968900 -44.871423 2.431912 0.469611 -2.489398 -337.376456 -35.995790 18.226334 -0.000004 0.000010 -18.200199 309.356398 48.936950 40.923580 0.000000 0.000001 -16.279900 26.021177 14.428389 -7.832443 -1.987986 -0.073497 -2.712999 -113.465022 -35.840103 -68.100579 -0.000002 -0.000003 -19.547783 -2171.739844 134.634476 374.631532 -0.000003 0.000008 -14.881189 2173.024138 28.430097 -338.680777
